HIERARCHY
ROOT Root
{
  OFFSET 0.0 0.0 0.0
  CHANNELS 6 Xposition Yposition Zposition Zrotation Yrotation Xrotation
  JOINT Hips
  {
    OFFSET 0.0 100.0 0.0
    CHANNELS 6 Xposition Yposition Zposition Zrotation Yrotation Xrotation
    JOINT Spine1
    {
      OFFSET 5.003913 -0.037094 -0.013727
      CHANNELS 3 Zrotation Yrotation Xrotation
      JOINT Spine2
      {
        OFFSET 7.125363 -1e-06 0.0
        CHANNELS 3 Zrotation Yrotation Xrotation
        JOINT Chest
        {
          OFFSET 7.594027 1e-06 0.0
          CHANNELS 3 Zrotation Yrotation Xrotation
          JOINT Neck1
          {
            OFFSET 26.313086 -0.460272 -0.181672
            CHANNELS 3 Zrotation Yrotation Xrotation
            JOINT Neck2
            {
              OFFSET 8.045911 0.0 0.0
              CHANNELS 3 Zrotation Yrotation Xrotation
              JOINT Head
              {
                OFFSET 6.432774 0.0 0.0
                CHANNELS 3 Zrotation Yrotation Xrotation
                JOINT HeadEnd
                {
                  OFFSET 16.169773 0.06451 0.00362
                  CHANNELS 3 Zrotation Yrotation Xrotation
                }
                JOINT Jaw
                {
                  OFFSET 0.108741 3.12938 0.002639
                  CHANNELS 3 Zrotation Yrotation Xrotation
                }
                JOINT LeftEye
                {
                  OFFSET 4.45173 8.166359 3.206392
                  CHANNELS 3 Zrotation Yrotation Xrotation
                }
                JOINT RightEye
                {
                  OFFSET 4.436895 8.135758 -3.222429
                  CHANNELS 3 Zrotation Yrotation Xrotation
                }
              }
            }
          }
          JOINT LeftShoulder
          {
            OFFSET 23.218927 5.195579 1.621656
            CHANNELS 3 Zrotation Yrotation Xrotation
            JOINT LeftArm
            {
              OFFSET 15.902118 2e-06 -2e-06
              CHANNELS 3 Zrotation Yrotation Xrotation
              JOINT LeftForeArm
              {
                OFFSET 28.739307 0.0 -1e-06
                CHANNELS 3 Zrotation Yrotation Xrotation
                JOINT LeftHand
                {
                  OFFSET 27.093981 -4e-06 0.0
                  CHANNELS 3 Zrotation Yrotation Xrotation
                  JOINT LeftHandThumb1
                  {
                    OFFSET 2.276781 3.380274 0.83384
                    CHANNELS 3 Zrotation Yrotation Xrotation
                    JOINT LeftHandThumb2
                    {
                      OFFSET 4.705309 -1e-06 -1e-06
                      CHANNELS 3 Zrotation Yrotation Xrotation
                      JOINT LeftHandThumb3
                      {
                        OFFSET 2.798515 0.0 3e-06
                        CHANNELS 3 Zrotation Yrotation Xrotation
                        JOINT LeftHandThumbEnd
                        {
                          OFFSET 3.180793 4e-06 -4e-06
                          CHANNELS 3 Zrotation Yrotation Xrotation
                        }
                      }
                    }
                  }
                  JOINT LeftHandIndex1
                  {
                    OFFSET 3.247786 2.352677 0.137192
                    CHANNELS 3 Zrotation Yrotation Xrotation
                    JOINT LeftHandIndex2
                    {
                      OFFSET 6.367095 1e-06 0.0
                      CHANNELS 3 Zrotation Yrotation Xrotation
                      JOINT LeftHandIndex3
                      {
                        OFFSET 3.662364 0.0 0.0
                        CHANNELS 3 Zrotation Yrotation Xrotation
                        JOINT LeftHandIndex4
                        {
                          OFFSET 2.329242 4e-06 -4e-06
                          CHANNELS 3 Zrotation Yrotation Xrotation
                          JOINT LeftHandIndexEnd
                          {
                            OFFSET 2.767823 1e-06 0.0
                            CHANNELS 3 Zrotation Yrotation Xrotation
                          }
                        }
                      }
                    }
                  }
                  JOINT LeftHandMiddle1
                  {
                    OFFSET 3.163612 0.945023 -0.406112
                    CHANNELS 3 Zrotation Yrotation Xrotation
                    JOINT LeftHandMiddle2
                    {
                      OFFSET 6.276789 3e-06 0.0
                      CHANNELS 3 Zrotation Yrotation Xrotation
                      JOINT LeftHandMiddle3
                      {
                        OFFSET 4.35652 -1e-06 4e-06
                        CHANNELS 3 Zrotation Yrotation Xrotation
                        JOINT LeftHandMiddle4
                        {
                          OFFSET 2.996877 0.0 8e-06
                          CHANNELS 3 Zrotation Yrotation Xrotation
                          JOINT LeftHandMiddleEnd
                          {
                            OFFSET 2.323256 3e-06 -4e-06
                            CHANNELS 3 Zrotation Yrotation Xrotation
                          }
                        }
                      }
                    }
                  }
                  JOINT LeftHandRing1
                  {
                    OFFSET 2.882606 -0.309162 0.107445
                    CHANNELS 3 Zrotation Yrotation Xrotation
                    JOINT LeftHandRing2
                    {
                      OFFSET 6.033198 0.0 4e-06
                      CHANNELS 3 Zrotation Yrotation Xrotation
                      JOINT LeftHandRing3
                      {
                        OFFSET 4.350578 3e-06 0.0
                        CHANNELS 3 Zrotation Yrotation Xrotation
                        JOINT LeftHandRing4
                        {
                          OFFSET 2.651321 2e-06 -7e-06
                          CHANNELS 3 Zrotation Yrotation Xrotation
                          JOINT LeftHandRingEnd
                          {
                            OFFSET 1.937663 1e-06 -4e-06
                            CHANNELS 3 Zrotation Yrotation Xrotation
                          }
                        }
                      }
                    }
                  }
                  JOINT LeftHandPinky1
                  {
                    OFFSET 2.865315 -1.525436 0.575687
                    CHANNELS 3 Zrotation Yrotation Xrotation
                    JOINT LeftHandPinky2
                    {
                      OFFSET 5.54936 1e-06 -8e-06
                      CHANNELS 3 Zrotation Yrotation Xrotation
                      JOINT LeftHandPinky3
                      {
                        OFFSET 3.070974 0.0 -4e-06
                        CHANNELS 3 Zrotation Yrotation Xrotation
                        JOINT LeftHandPinky4
                        {
                          OFFSET 1.549672 1e-06 0.0
                          CHANNELS 3 Zrotation Yrotation Xrotation
                          JOINT LeftHandPinkyEnd
                          {
                            OFFSET 1.952123 0.0 0.0
                            CHANNELS 3 Zrotation Yrotation Xrotation
                          }
                        }
                      }
                    }
                  }
                }
              }
            }
          }
          JOINT RightShoulder
          {
            OFFSET 23.161716 5.296122 -1.380114
            CHANNELS 3 Zrotation Yrotation Xrotation
            JOINT RightArm
            {
              OFFSET -16.027195 -2e-06 1.1e-05
              CHANNELS 3 Zrotation Yrotation Xrotation
              JOINT RightForeArm
              {
                OFFSET -28.736639 4e-06 2e-06
                CHANNELS 3 Zrotation Yrotation Xrotation
                JOINT RightHand
                {
                  OFFSET -27.133619 6e-06 0.0
                  CHANNELS 3 Zrotation Yrotation Xrotation
                  JOINT RightHandThumb1
                  {
                    OFFSET -2.274328 -3.351035 -0.83067
                    CHANNELS 3 Zrotation Yrotation Xrotation
                    JOINT RightHandThumb2
                    {
                      OFFSET -4.703594 -3e-06 2e-06
                      CHANNELS 3 Zrotation Yrotation Xrotation
                      JOINT RightHandThumb3
                      {
                        OFFSET -2.794935 -4e-06 -3e-06
                        CHANNELS 3 Zrotation Yrotation Xrotation
                        JOINT RightHandThumbEnd
                        {
                          OFFSET -3.183852 4e-06 1e-06
                          CHANNELS 3 Zrotation Yrotation Xrotation
                        }
                      }
                    }
                  }
                  JOINT RightHandIndex1
                  {
                    OFFSET -3.253496 -2.33755 -0.127667
                    CHANNELS 3 Zrotation Yrotation Xrotation
                    JOINT RightHandIndex2
                    {
                      OFFSET -6.344434 0.0 0.0
                      CHANNELS 3 Zrotation Yrotation Xrotation
                      JOINT RightHandIndex3
                      {
                        OFFSET -3.654871 0.0 -8e-06
                        CHANNELS 3 Zrotation Yrotation Xrotation
                        JOINT RightHandIndex4
                        {
                          OFFSET -2.327586 -1e-06 0.0
                          CHANNELS 3 Zrotation Yrotation Xrotation
                          JOINT RightHandIndexEnd
                          {
                            OFFSET -2.770001 3e-06 8e-06
                            CHANNELS 3 Zrotation Yrotation Xrotation
                          }
                        }
                      }
                    }
                  }
                  JOINT RightHandMiddle1
                  {
                    OFFSET -3.168223 -0.944764 0.411762
                    CHANNELS 3 Zrotation Yrotation Xrotation
                    JOINT RightHandMiddle2
                    {
                      OFFSET -6.266691 -1e-06 -4e-06
                      CHANNELS 3 Zrotation Yrotation Xrotation
                      JOINT RightHandMiddle3
                      {
                        OFFSET -4.348901 0.0 0.0
                        CHANNELS 3 Zrotation Yrotation Xrotation
                        JOINT RightHandMiddle4
                        {
                          OFFSET -3.00024 2e-06 -4e-06
                          CHANNELS 3 Zrotation Yrotation Xrotation
                          JOINT RightHandMiddleEnd
                          {
                            OFFSET -2.321477 -4e-06 -4e-06
                            CHANNELS 3 Zrotation Yrotation Xrotation
                          }
                        }
                      }
                    }
                  }
                  JOINT RightHandRing1
                  {
                    OFFSET -2.885654 0.293261 -0.119232
                    CHANNELS 3 Zrotation Yrotation Xrotation
                    JOINT RightHandRing2
                    {
                      OFFSET -6.032835 -1e-06 -4e-06
                      CHANNELS 3 Zrotation Yrotation Xrotation
                      JOINT RightHandRing3
                      {
                        OFFSET -4.33881 0.0 -4e-06
                        CHANNELS 3 Zrotation Yrotation Xrotation
                        JOINT RightHandRing4
                        {
                          OFFSET -2.654903 -4e-06 -4e-06
                          CHANNELS 3 Zrotation Yrotation Xrotation
                          JOINT RightHandRingEnd
                          {
                            OFFSET -1.935122 0.0 4e-06
                            CHANNELS 3 Zrotation Yrotation Xrotation
                          }
                        }
                      }
                    }
                  }
                  JOINT RightHandPinky1
                  {
                    OFFSET -2.866241 1.503904 -0.60527
                    CHANNELS 3 Zrotation Yrotation Xrotation
                    JOINT RightHandPinky2
                    {
                      OFFSET -5.553177 -2e-06 0.0
                      CHANNELS 3 Zrotation Yrotation Xrotation
                      JOINT RightHandPinky3
                      {
                        OFFSET -3.062664 -1e-06 -4e-06
                        CHANNELS 3 Zrotation Yrotation Xrotation
                        JOINT RightHandPinky4
                        {
                          OFFSET -1.546529 2e-06 4e-06
                          CHANNELS 3 Zrotation Yrotation Xrotation
                          JOINT RightHandPinkyEnd
                          {
                            OFFSET -1.952341 0.0 -4e-06
                            CHANNELS 3 Zrotation Yrotation Xrotation
                          }
                        }
                      }
                    }
                  }
                }
              }
            }
          }
        }
      }
    }
    JOINT LeftLeg
    {
      OFFSET -8.443107 2.567604 10.043214
      CHANNELS 3 Zrotation Yrotation Xrotation
      JOINT LeftShin
      {
        OFFSET 43.229198 1e-06 -1e-06
        CHANNELS 3 Zrotation Yrotation Xrotation
        JOINT LeftFoot
        {
          OFFSET 42.298611 1e-06 1e-06
          CHANNELS 3 Zrotation Yrotation Xrotation
          JOINT LeftToeBase
          {
            OFFSET 14.165858 1e-06 0.0
            CHANNELS 3 Zrotation Yrotation Xrotation
            JOINT LeftToeEnd
            {
              OFFSET 6.7141 -0.234461 0.0
              CHANNELS 3 Zrotation Yrotation Xrotation
            }
          }
        }
      }
    }
    JOINT RightLeg
    {
      OFFSET -8.303923 2.592729 -10.047278
      CHANNELS 3 Zrotation Yrotation Xrotation
      JOINT RightShin
      {
        OFFSET -43.369682 0.0 1e-06
        CHANNELS 3 Zrotation Yrotation Xrotation
        JOINT RightFoot
        {
          OFFSET -42.260784 4e-06 2e-06
          CHANNELS 3 Zrotation Yrotation Xrotation
          JOINT RightToeBase
          {
            OFFSET -14.222245 -2e-06 -1e-06
            CHANNELS 3 Zrotation Yrotation Xrotation
            JOINT RightToeEnd
            {
              OFFSET -6.660062 0.232574 -2e-06
              CHANNELS 3 Zrotation Yrotation Xrotation
            }
          }
        }
      }
    }
  }
}
MOTION
Frames: 4
Frame Time: 0.03333333333333333
0.0 0.0 0.0 0.0 -0.0 0.0 -12.872685 96.431396 255.195999 88.519341 3.707616 84.909424 8.731224 3.856386 1.133759 -8.889013 0.087142 2.566207 20.552664 -1.532967 0.890546 31.633137 -11.258236 2.561001 -2.64766 -0.727366 3.625007 -25.880409 -1.283913 4.601204 7e-06 -0.0 2e-06 -0.109477 -0.002458 0.003902 -0.153166 0.078198 0.019726 -0.098599 -0.10437 -0.005509 -83.681679 -66.740074 104.875763 24.256897 -44.765125 21.446331 75.139023 -1.456197 -0.065597 21.958523 24.76746 9.097062 17.636629 -26.322731 52.41119 -19.46666 -14.395598 29.410385 -2e-06 -8.774819 -3e-06 15.224765 -18.137054 6.386714 -0.609779 -1.795656 -3.889328 -4.80709 -11.046809 -2.937851 3e-06 -20.976017 -0.0 -5.019973 -25.03356 -4.03188 4e-06 2e-06 1e-06 -10.634537 -5.686971 -3.565587 10.573275 -17.922947 -3.113899 4e-06 -13.821205 -0.0 -0.501775 -31.181505 -4.027017 -11.084887 -59.512486 7.540847 -13.982716 -7.150198 -2.87504 13.772729 -8.401491 -3.218243 0.347736 -34.211544 0.771655 -0.96303 -17.73337 2.621021 1e-06 0.0 2e-06 -17.346416 -20.095217 -4.201785 21.757557 -1.638376 3.866428 -2e-06 -6.338825 1e-06 -1.697592 -22.591747 -6.194005 -1e-06 -3e-06 -2e-06 139.063065 -77.384567 62.726093 48.470421 -39.644665 33.101852 61.375813 0.577176 0.133628 2.759324 21.90659 14.422014 22.182114 -20.375891 49.933311 -16.701817 -16.743534 28.47653 -3e-06 -12.690603 -0.0 16.180428 -18.077131 2.999655 -0.105918 -1.513856 -4.275882 -5.03904 -5.612871 -2.953557 3e-06 -11.020525 -2e-06 -6.111301 -15.895334 -3.84047 0.0 0.0 -0.0 -10.283369 -5.680287 -4.341838 11.028296 -11.302406 -2.372634 -1.384269 -14.238581 -6.320121 -0.625438 -26.924191 -3.827601 -4.830257 -50.022781 -3.256443 -13.708528 -7.363476 -3.720937 18.141153 -14.052739 -3.242676 6e-06 -18.78727 -2e-06 -0.429711 -8.456043 2.555505 -0.0 -1e-06 1e-06 -15.923536 -20.094484 -5.473582 30.419214 -7.190827 1.735923 3e-06 -8.162927 -2e-06 -1.8619 -22.861473 -6.167943 -0.0 -3e-06 -1e-06 155.547394 -7.36135 -14.531183 7.94304 0.117922 -0.430249 -73.879158 -0.99323 -13.62575 -10.035683 1.992403 1.76714 -0.999997 -0.0 0.0 13.598742 2.967488 -12.414267 17.256224 -0.031999 0.033048 -91.060951 9.313478 -0.59452 -7.197462 0.610508 1.653071 -1.000003 0.0 0.0 
0.0 0.0 0.0 0.0 -0.0 0.0 -12.441425 96.043526 258.410828 88.450043 3.304736 83.684807 8.510027 3.653498 1.222171 -8.962743 0.109342 2.854041 20.540705 -1.515343 0.994058 31.345245 -11.644694 2.594212 -2.606059 -0.809975 3.87579 -26.383633 -1.259119 4.913359 6e-06 -0.0 0.0 -0.098735 -0.01119 0.045272 -0.150704 0.069164 0.059756 -0.097401 -0.111859 0.036098 -85.360245 -66.496254 106.468941 23.775995 -44.470207 21.333624 75.027512 -1.564501 -0.233854 22.579884 25.557102 9.531112 17.636625 -26.322731 52.411201 -19.466661 -14.3956 29.410395 -1e-06 -8.774821 -3e-06 15.294629 -18.146126 6.359164 -0.609775 -1.795653 -3.889327 -4.807091 -11.046813 -2.937851 3e-06 -20.976019 -1e-06 -5.01997 -25.03356 -4.031886 8e-06 -2e-06 -1e-06 -10.634532 -5.686969 -3.565588 10.573272 -17.922951 -3.113903 2e-06 -13.821209 1e-06 -0.501778 -31.181505 -4.027018 -11.087241 -59.509945 7.431356 -13.982713 -7.150198 -2.875041 13.772727 -8.401495 -3.218238 0.347733 -34.211555 0.771653 -0.96303 -17.73337 2.62102 1e-06 -0.0 1e-06 -17.346416 -20.095217 -4.201784 21.757557 -1.638375 3.866425 -1e-06 -6.338825 0.0 -1.697585 -22.591745 -6.194008 -2e-06 -1e-06 -3e-06 138.845718 -77.802513 62.858574 48.172985 -39.709846 31.87751 61.250393 0.679898 0.337726 2.895829 22.963774 14.147185 22.182114 -20.375883 49.9333 -16.701811 -16.743528 28.476528 -2e-06 -12.690601 -1e-06 16.166594 -18.075548 3.014426 -0.105918 -1.513856 -4.275882 -5.039042 -5.612872 -2.953556 4e-06 -11.020524 -3e-06 -6.1113 -15.895332 -3.840471 1e-06 -0.0 -0.0 -10.28337 -5.68029 -4.341838 11.028294 -11.302404 -2.372633 -1.384269 -14.238582 -6.320121 -0.625438 -26.924191 -3.827603 -4.899687 -50.049854 -3.121315 -13.708524 -7.363474 -3.720939 18.141148 -14.052739 -3.242675 7e-06 -18.78727 -4e-06 -0.429712 -8.456041 2.555503 -1e-06 -1e-06 -0.0 -15.923536 -20.094486 -5.473584 30.41921 -7.190826 1.735926 4e-06 -8.162926 -2e-06 -1.861902 -22.861467 -6.167944 1e-06 -3e-06 -1e-06 155.027115 -7.078735 -13.799302 10.362618 0.099042 -0.364269 -72.299454 -1.573154 -12.226635 -9.947826 1.921345 1.846926 -0.999998 0.0 0.0 15.812099 2.218662 -12.293505 16.268711 -0.012203 0.040914 -90.531456 10.650471 -1.290706 -7.959654 0.613399 1.647101 -1.000002 0.0 -0.0 
0.0 0.0 0.0 0.0 -0.0 0.0 -11.903815 95.923485 261.69751 88.981956 2.551526 82.584435 8.057739 3.076697 1.212654 -9.051335 0.104837 3.124752 20.607084 -1.748906 1.038517 30.784384 -11.917633 2.704603 -2.689447 -0.824651 4.076931 -26.638056 -1.235288 5.144828 6e-06 -0.0 1e-06 -0.106767 0.006771 0.012271 -0.184188 0.071497 0.020385 -0.139841 -0.077072 0.010075 -88.287613 -66.561951 109.243805 23.090839 -43.901848 21.194382 74.363853 -1.462663 -0.198623 23.077888 26.290913 9.031284 17.636625 -26.322735 52.411194 -19.466665 -14.395598 29.410393 -1e-06 -8.774819 -4e-06 15.300552 -18.130739 6.442312 -0.609779 -1.795654 -3.889326 -4.807083 -11.046809 -2.937849 7e-06 -20.976013 -0.0 -5.019969 -25.033554 -4.031878 7e-06 1e-06 1e-06 -10.634531 -5.686969 -3.565587 10.573272 -17.922951 -3.113901 5e-06 -13.821206 -1e-06 -0.501774 -31.181498 -4.027014 -11.112689 -59.491489 7.459222 -13.982712 -7.150196 -2.875041 13.772728 -8.401497 -3.21824 0.347738 -34.211555 0.771656 -0.963025 -17.733372 2.62102 -0.0 -0.0 1e-06 -17.346413 -20.095217 -4.201784 21.757555 -1.638376 3.866427 1e-06 -6.338823 0.0 -1.697587 -22.591743 -6.194005 0.0 -2e-06 -2e-06 136.52301 -78.451546 65.035431 47.812546 -39.77161 30.343161 60.740662 0.737081 0.535763 3.166377 24.129705 14.259788 22.182119 -20.375895 49.933319 -16.701811 -16.74353 28.476528 -3e-06 -12.690601 -1e-06 16.160585 -18.060837 2.93653 -0.105918 -1.513853 -4.275881 -5.039041 -5.61287 -2.953557 5e-06 -11.020524 -1e-06 -6.111298 -15.895332 -3.840471 1e-06 -0.0 0.0 -10.283372 -5.680285 -4.341839 11.028296 -11.302403 -2.372632 -1.384269 -14.238578 -6.320119 -0.625438 -26.924185 -3.827599 -4.859063 -50.03587 -3.116796 -13.708524 -7.363474 -3.72094 18.141148 -14.05274 -3.242672 6e-06 -18.78727 -0.0 -0.429712 -8.456043 2.555504 -1e-06 1e-06 -0.0 -15.923539 -20.094479 -5.473584 30.419218 -7.190827 1.735928 2e-06 -8.162926 0.0 -1.861903 -22.861467 -6.167941 -0.0 -2e-06 0.0 154.278076 -6.261167 -12.440892 13.023624 0.043824 -0.29122 -68.773857 -2.333171 -9.317899 -9.710881 1.832103 1.947624 -0.999999 -0.0 0.0 17.693611 0.818403 -12.328687 15.059009 -0.019424 0.111921 -88.646233 11.978371 -1.897748 -9.434582 0.654324 1.630664 -1.000003 1e-06 0.0 
0.0 0.0 0.0 0.0 -0.0 0.0 -11.319531 96.011566 265.051636 89.908737 1.622597 81.736153 7.587162 2.3487 1.119705 -9.152124 0.055488 3.332958 20.691635 -2.268698 1.018512 29.932598 -11.957846 2.859528 -2.74581 -0.781312 4.239057 -26.610821 -1.335321 5.337813 5e-06 -1e-06 1e-06 -0.116774 0.031161 -0.033731 -0.212417 0.081942 -0.030943 -0.183816 -0.03731 -0.030179 -91.235588 -66.735397 112.09623 22.86515 -43.349609 20.755869 73.069054 -1.30374 -0.131379 23.359997 26.944468 7.596578 17.636633 -26.322737 52.411201 -19.466661 -14.395604 29.410393 -2e-06 -8.774824 -3e-06 15.295469 -18.093605 6.484736 -0.609776 -1.795652 -3.889327 -4.807088 -11.046811 -2.93785 5e-06 -20.976015 0.0 -5.019972 -25.033556 -4.031882 7e-06 0.0 -0.0 -10.634533 -5.686968 -3.565587 10.573276 -17.922949 -3.113899 2e-06 -13.821211 1e-06 -0.501779 -31.181505 -4.027016 -11.176388 -59.466763 7.527728 -13.982714 -7.150197 -2.875044 13.772732 -8.401492 -3.21824 0.347735 -34.211555 0.771659 -0.963032 -17.73337 2.621022 1e-06 -0.0 1e-06 -17.346422 -20.095217 -4.201779 21.757566 -1.638377 3.86643 1e-06 -6.338823 2e-06 -1.69759 -22.591751 -6.194006 -1e-06 -3e-06 -2e-06 133.107071 -79.095375 68.328621 47.568302 -40.074417 28.435005 59.930435 0.769314 0.676358 3.651944 25.216516 14.594337 22.182117 -20.375891 49.933304 -16.701813 -16.743528 28.47653 -2e-06 -12.690601 -1e-06 16.084547 -17.9832 2.861732 -0.105919 -1.513856 -4.275882 -5.03904 -5.612871 -2.953556 4e-06 -11.020523 -2e-06 -6.111296 -15.89533 -3.840469 0.0 0.0 1e-06 -10.283371 -5.680291 -4.341837 11.028295 -11.302406 -2.372633 -1.38427 -14.23858 -6.32012 -0.625434 -26.924187 -3.827601 -4.88627 -49.944687 -3.072779 -13.708523 -7.363477 -3.720939 18.141148 -14.052738 -3.242674 8e-06 -18.78727 -3e-06 -0.429712 -8.456043 2.555503 -0.0 -0.0 -0.0 -15.923532 -20.094484 -5.473583 30.419207 -7.190827 1.735927 2e-06 -8.162927 -1e-06 -1.861899 -22.861469 -6.167942 1e-06 -1e-06 -1e-06 153.314636 -5.158575 -11.112765 15.88751 0.001547 -0.226038 -64.084961 -3.136902 -6.126395 -9.074983 1.742089 2.043919 -0.999999 -0.0 0.0 19.250578 -0.939582 -12.484138 14.093406 -0.058034 0.18938 -85.16214 13.183604 -2.477301 -12.043625 0.726963 1.600257 -1.000003 0.0 0.0 
